<svg width="512" height="512" xmlns="http://www.w3.org/2000/svg" baseProfile="tiny-ps" version="1.2">
 <title>NEW3</title>
 <defs>
  <clipPath id="cp1" clipPathUnits="userSpaceOnUse">
   <path id="svg_1" d="m0,0l1080,0l0,1080l-1080,0l0,-1080z"/>
  </clipPath>
  <linearGradient y2="0.5" x2="1" y1="0.5" x1="0" id="grd1">
   <stop stop-color="#000000" offset="0.132"/>
   <stop stop-color="#aaaaaa" offset="0.976"/>
  </linearGradient>
 </defs>
 <g>
  <title>Layer 1</title>
  <g stroke="null" clip-path="url(#cp1)" id="Artboard 1">
   <path stroke="url(#grd1)" stroke-width="4.38" fill="#2f3142" d="m1.13919,144.5538c0,-79.20234 65.06071,-143.41461 145.30956,-143.41461l220.52004,0c80.24885,0 145.30956,64.21227 145.30956,143.41461l0,217.64429c0,79.20234 -65.06071,143.41461 -145.30956,143.41461l-220.52004,0c-80.24885,0 -145.30956,-64.21227 -145.30956,-143.41461l0,-217.64429z" class="shp0" id="Layer 1"/>
   <path stroke="null" fill="#616474" d="m145.71855,233.91768c-48.45599,0 -87.62386,-38.65708 -87.62386,-86.48117c0,-47.82409 39.16786,-86.48117 87.62386,-86.48117c48.45599,0 87.62386,38.65708 87.62386,86.48117c0,47.82409 -39.16786,86.48117 -87.62386,86.48117z" class="shp1" id="форма 1"/>
   <path stroke="null" d="m140.70939,97.76028l13.18009,0l0,43.11807l43.6951,0l0,13.16676l-43.6951,0l0,43.11807l-13.18009,0l0,-43.11807l-43.68779,0l0,-13.16676l43.68779,0l0,-43.11807z" aria-label="+" fill="#f3f3f0" id="+"/>
   <path stroke="null" fill="#616474" d="m364.048,233.91768c-48.45599,0 -87.62386,-38.65708 -87.62386,-86.48117c0,-47.82409 39.16786,-86.48117 87.62386,-86.48117c48.45599,0 87.62386,38.65708 87.62386,86.48117c0,47.82409 -39.16786,86.48117 -87.62386,86.48117z" class="shp1" id="форма 2"/>
   <path stroke="null" d="m321.58694,143.4872l83.46172,0l0,11.06959l-83.46172,0l0,-11.06959z" aria-label="_" fill="#f3f3f0" id="_"/>
   <path stroke="null" fill="#616474" d="m145.71855,447.95859c-48.45599,0 -87.62386,-38.65708 -87.62386,-86.48117c0,-47.82409 39.16786,-86.48117 87.62386,-86.48117c48.45599,0 87.62386,38.65708 87.62386,86.48117c0,47.82409 -39.16786,86.48117 -87.62386,86.48117z" class="shp1" id="форма 3"/>
   <path stroke="null" d="m176.10943,322.22217l9.52909,9.12376l-31.30362,31.84669l31.5884,30.23958l-9.5583,9.72193l-31.5811,-30.24679l-31.30362,31.8539l-9.52909,-9.12376l31.30362,-31.84669l-31.5884,-30.23958l9.5583,-9.72193l31.5811,30.23958l31.30362,-31.84669z" aria-label="+" fill="#f3f3f0" id="+"/>
   <path stroke="null" fill="#f2b700" d="m364.048,447.95859c-48.45599,0 -87.62386,-38.65708 -87.62386,-86.48117c0,-47.82409 39.16786,-86.48117 87.62386,-86.48117c48.45599,0 87.62386,38.65708 87.62386,86.48117c0,47.82409 -39.16786,86.48117 -87.62386,86.48117z" class="shp2" id="форма 4"/>
   <path stroke="null" d="m312.73693,353.30494l0,-13.23883l102.38117,0l0,13.23883l-102.38117,0zm0,32.31513l0,-13.39738l102.38117,0l0,13.39738l-102.38117,0z" aria-label="=" fill="#f3f3f0" id="="/>
  </g>
 </g>
</svg>